<svg width="375" height="34" viewBox="0 0 375 34" fill="none" xmlns="http://www.w3.org/2000/svg">
<rect width="375" height="34" fill="black"/>
<path d="M311.399 15.5036C311.583 15.6872 311.853 15.6775 312.027 15.4939C314.308 13.0683 317.323 11.7928 320.696 11.7928C324.087 11.7928 327.112 13.078 329.383 15.5036C329.547 15.6678 329.808 15.6678 329.982 15.4842L331.268 14.199C331.422 14.0347 331.422 13.8221 331.296 13.6675C329.113 10.981 325.005 9 320.696 9C316.386 9 312.279 10.981 310.095 13.6675C309.959 13.8221 309.969 14.0347 310.124 14.199L311.399 15.5036ZM315.265 19.3786C315.458 19.5816 315.709 19.5622 315.893 19.3496C317.014 18.103 318.83 17.2043 320.696 17.2237C322.58 17.2043 324.387 18.132 325.518 19.3786C325.701 19.5719 325.943 19.5719 326.126 19.369L327.566 17.9484C327.721 17.7938 327.74 17.5909 327.595 17.4266C326.194 15.6968 323.595 14.4213 320.696 14.4213C317.797 14.4213 315.197 15.7065 313.796 17.4266C313.651 17.5909 313.67 17.7841 313.825 17.9484L315.265 19.3786ZM320.696 24.452C320.899 24.452 321.082 24.3457 321.44 23.9978L323.701 21.8235C323.846 21.6882 323.875 21.4756 323.749 21.3113C323.14 20.5286 322 19.8521 320.696 19.8521C319.362 19.8521 318.202 20.5576 317.603 21.3693C317.516 21.5046 317.545 21.6882 317.69 21.8235L319.951 23.9978C320.309 24.3457 320.493 24.452 320.696 24.452Z" fill="white"/>
<path d="M344.402 24.0844C342.523 24.0844 341 22.5612 341 20.6825V14.4019C341 12.5232 342.523 11 344.402 11H361.865C363.744 11 365.267 12.5232 365.267 14.4019V20.6825C365.267 22.5612 363.744 24.0844 361.865 24.0844H344.402ZM342.208 14.4019V20.6825C342.208 21.8928 343.189 22.8741 344.4 22.8741H344.402H361.865C363.074 22.8719 364.053 21.8906 364.053 20.6825V14.4019C364.051 13.1927 363.071 12.2125 361.862 12.2103H344.401C343.191 12.2103 342.208 13.1916 342.207 14.4019H342.208ZM345.128 21.3803C344.339 21.3803 343.7 20.7402 343.7 19.9508V15.1281C343.7 14.3387 344.34 13.6987 345.128 13.6987H351.703C352.492 13.6987 353.131 14.3387 353.131 15.127V19.9552C353.13 20.7446 352.491 21.3836 351.703 21.3847L345.128 21.3803ZM365.704 15.4814C366.565 15.7867 367.17 16.5936 367.17 17.5411C367.17 18.4886 366.565 19.2955 365.72 19.5965L365.704 19.6008V15.4814Z" fill="white"/>
<path d="M292.123 8.51416C292.123 7.67791 292.8 7 293.637 7H295.656C296.492 7 297.17 7.67791 297.17 8.51416V23.6557C297.17 24.492 296.492 25.1699 295.656 25.1699H293.637C292.8 25.1699 292.123 24.492 292.123 23.6557V8.51416Z" fill="white"/>
<path d="M285.562 14.5708C285.562 13.7345 286.239 13.0566 287.076 13.0566H289.095C289.931 13.0566 290.609 13.7345 290.609 14.5708V23.6558C290.609 24.492 289.931 25.1699 289.095 25.1699H287.076C286.239 25.1699 285.562 24.492 285.562 23.6558V14.5708Z" fill="white"/>
<path d="M280.514 19.1133C279.678 19.1133 279 19.7912 279 20.6274V23.6558C279 24.492 279.678 25.1699 280.514 25.1699H282.533C283.369 25.1699 284.047 24.492 284.047 23.6558V20.6274C284.047 19.7912 283.369 19.1133 282.533 19.1133H280.514Z" fill="white"/>
</svg>
