<svg width="57" height="44" viewBox="0 0 57 44" fill="none" xmlns="http://www.w3.org/2000/svg">
<path d="M0.929942 0.932671C-0.309981 2.17623 -0.309981 41.8238 0.929942 43.0673C2.16987 44.3109 54.8301 44.3109 56.0701 43.0673C57.31 41.8238 57.31 2.17623 56.0701 0.932671C54.8301 -0.31089 2.16987 -0.31089 0.929942 0.932671ZM48.7764 8.24771C49.2869 8.75977 49.6516 10.0033 49.6516 11.0274C49.6516 13.4414 48.4117 14.685 46.0048 14.685C43.5979 14.685 42.358 13.4414 42.358 11.0274C42.358 8.61347 43.5979 7.36991 46.0048 7.36991C47.0259 7.36991 48.2658 7.73566 48.7764 8.24771ZM24.8532 23.1704C29.667 27.9252 32.4386 30.1197 33.3868 29.9002C35.2102 29.5345 35.5749 25.9501 33.8244 24.0482C32.5845 22.6584 32.5845 22.5852 33.9702 21.5611C36.9607 19.3666 39.2946 20.2444 44.9837 25.8038C50.0893 30.7049 50.381 31.217 50.381 34.2161V37.3616H28.5H6.619V29.7539V22.2195L9.90115 19.1471C15.0797 14.3924 16.3196 14.7581 24.8532 23.1704Z" fill="white"/>
</svg>
